<?xml version="1.0" encoding="utf-8"?>
<!-- Generator: Adobe Illustrator 24.3.0, SVG Export Plug-In . SVG Version: 6.00 Build 0)  -->
<svg version="1.1" id="Layer_1" xmlns="http://www.w3.org/2000/svg" xmlns:xlink="http://www.w3.org/1999/xlink" x="0px" y="0px"
	 viewBox="0 0 1553 1067" style="enable-background:new 0 0 1553 1067;" xml:space="preserve">
<style type="text/css">
	.st0{fill:#514DFF;}
	.st1{fill:#817BFF;}
	.st2{fill:none;stroke:#000000;stroke-miterlimit:10;}
	.st3{fill:#4553FF;}
	.st4{fill:none;stroke:#000000;stroke-width:0.6047;stroke-miterlimit:10;}
	.st5{fill:#FFF800;}
	.st6{fill:none;stroke:#FFFFFF;stroke-miterlimit:10;stroke-dasharray:4,5,4;}
	.st7{fill:#FFFFFF;}
	.st8{fill:none;stroke:#FFF800;stroke-width:3;stroke-miterlimit:10;}
	.st9{fill:#FFFFFF;stroke:#000000;stroke-width:0.5;stroke-miterlimit:10;}
	.st10{stroke:#FFFFFF;stroke-width:0.5;stroke-miterlimit:10;}
	.st11{fill:#FF57EF;}
	.st12{fill:#EA8BEA;}
	.st13{fill:none;stroke:#332133;stroke-width:0.5;stroke-miterlimit:10;}
	.st14{fill:#E8103A;}
	.st15{fill:#332133;}
	.st16{fill:#3381FF;}
	.st17{fill:#25FFFF;}
	.st18{fill:#514DFF;stroke:#FFFFFF;stroke-miterlimit:10;stroke-dasharray:4,5,4;}
	.st19{fill:none;stroke:#000000;stroke-width:5;stroke-miterlimit:10;}
	.st20{stroke:#FFF800;stroke-width:0.5;stroke-miterlimit:10;}
	.st21{fill:none;stroke:#000000;stroke-width:5.8334;stroke-miterlimit:10;}
	.st22{fill:none;stroke:#FFFFFF;stroke-miterlimit:10;}
	.st23{fill:#4583FF;}
	.st24{font-family:'MyriadPro-Bold';}
	.st25{font-size:43.8188px;}
	.st26{fill:none;stroke:#332133;stroke-width:0.224;stroke-miterlimit:10;}
	.st27{fill:none;stroke:#332133;stroke-width:2.5361;stroke-miterlimit:10;}
	.st28{fill:#B7D6A7;}
	.st29{fill:#FFFFFF;stroke:#000000;stroke-width:0.3567;stroke-miterlimit:10;}
	.st30{stroke:#FFFFFF;stroke-width:0.3567;stroke-miterlimit:10;}
</style>
<text transform="matrix(1 0 0 1 1048.8799 171.1902)" class="st7 st24 st25">Xyz</text>
<text transform="matrix(1 0 0 1 55.8799 53.1902)" class="st7 st24 st25">Xyz</text>
<rect x="1048.88" y="190.74" class="st2" width="413.23" height="357.87"/>
<line class="st2" x1="1048.88" y1="548.61" x2="1462.11" y2="548.61"/>
<rect x="1045.73" y="545.3" width="6.3" height="6.3"/>
<path class="st19" d="M1048.88,548.45c0,0,76.23-247.48,413.23-247.48"/>
<g id="XMLID_132_">
	<rect id="XMLID_177_" x="1242.22" y="293.57" class="st9" width="4.76" height="34.72"/>
	<circle id="XMLID_176_" class="st9" cx="1244.6" cy="287.99" r="7.06"/>
	
		<rect id="XMLID_175_" x="1240.72" y="370.44" transform="matrix(-1 9.034805e-11 -9.034805e-11 -1 2486.1968 775.5984)" class="st9" width="4.76" height="34.72"/>
	<circle id="XMLID_174_" class="st9" cx="1243.1" cy="410.74" r="7.06"/>
	
		<rect id="XMLID_173_" x="1296.89" y="332.89" transform="matrix(4.660609e-11 1 -1 4.660609e-11 1649.5201 -949.0219)" class="st9" width="4.76" height="34.72"/>
	<circle id="XMLID_172_" class="st9" cx="1322.21" cy="350.25" r="7.06"/>
	
		<rect id="XMLID_171_" x="1186.04" y="331.39" transform="matrix(-1.367634e-10 -1 1 -1.367634e-10 839.6746 1537.1749)" class="st9" width="4.76" height="34.72"/>
	<circle id="XMLID_170_" class="st9" cx="1165.48" cy="348.75" r="7.06"/>
	
		<rect id="XMLID_169_" x="1281.19" y="293.48" transform="matrix(0.7071 0.7071 -0.7071 0.7071 595.7451 -816.5768)" class="st9" width="4.76" height="34.72"/>
	<circle id="XMLID_168_" class="st9" cx="1299.79" cy="294.62" r="7.06"/>
	
		<rect id="XMLID_167_" x="1201.75" y="370.8" transform="matrix(-0.7071 -0.7071 0.7071 -0.7071 1781.1044 1514.0771)" class="st9" width="4.76" height="34.72"/>
	<circle id="XMLID_166_" class="st9" cx="1187.91" cy="404.38" r="7.06"/>
	
		<rect id="XMLID_165_" x="1280.13" y="371.86" transform="matrix(-0.7071 0.7071 -0.7071 -0.7071 2464.5981 -242.4305)" class="st9" width="4.76" height="34.72"/>
	<circle id="XMLID_164_" class="st9" cx="1298.73" cy="405.44" r="7.06"/>
	
		<rect id="XMLID_163_" x="1202.81" y="292.42" transform="matrix(0.7071 -0.7071 0.7071 0.7071 133.9441 942.9288)" class="st9" width="4.76" height="34.72"/>
	<circle id="XMLID_162_" class="st9" cx="1188.97" cy="293.56" r="7.06"/>
	<circle id="XMLID_161_" class="st20" cx="1220.21" cy="316.47" r="11.85"/>
	<circle id="XMLID_160_" class="st20" cx="1236.62" cy="316.47" r="11.85"/>
	<circle id="XMLID_159_" class="st20" cx="1253.02" cy="316.47" r="11.85"/>
	<circle id="XMLID_158_" class="st20" cx="1269.43" cy="316.47" r="11.85"/>
	<circle id="XMLID_157_" class="st20" cx="1218.94" cy="382.27" r="11.85"/>
	<circle id="XMLID_156_" class="st20" cx="1235.35" cy="382.27" r="11.85"/>
	<circle id="XMLID_155_" class="st20" cx="1251.75" cy="382.27" r="11.85"/>
	<circle id="XMLID_154_" class="st20" cx="1268.16" cy="382.27" r="11.85"/>
	<circle id="XMLID_153_" class="st20" cx="1205.73" cy="332.82" r="11.85"/>
	<circle id="XMLID_152_" class="st20" cx="1222.14" cy="332.82" r="11.85"/>
	<circle id="XMLID_151_" class="st20" cx="1238.55" cy="332.82" r="11.85"/>
	<circle id="XMLID_150_" class="st20" cx="1254.95" cy="332.82" r="11.85"/>
	<circle id="XMLID_149_" class="st20" cx="1270.46" cy="332.82" r="11.85"/>
	<circle id="XMLID_148_" class="st20" cx="1283.91" cy="332.82" r="11.85"/>
	<circle id="XMLID_147_" class="st20" cx="1205.73" cy="366.1" r="11.85"/>
	<circle id="XMLID_146_" class="st20" cx="1222.14" cy="366.1" r="11.85"/>
	<circle id="XMLID_145_" class="st20" cx="1238.55" cy="366.1" r="11.85"/>
	<circle id="XMLID_144_" class="st20" cx="1254.95" cy="366.1" r="11.85"/>
	<circle id="XMLID_143_" class="st20" cx="1270.46" cy="366.1" r="11.85"/>
	<circle id="XMLID_142_" class="st20" cx="1283.91" cy="366.1" r="11.85"/>
	<circle id="XMLID_141_" class="st20" cx="1194.33" cy="349.02" r="11.85"/>
	<circle id="XMLID_140_" class="st20" cx="1210.74" cy="349.02" r="11.85"/>
	<circle id="XMLID_139_" class="st20" cx="1227.14" cy="349.02" r="11.85"/>
	<circle id="XMLID_138_" class="st20" cx="1243.55" cy="349.02" r="11.85"/>
	<circle id="XMLID_137_" class="st20" cx="1259.05" cy="349.02" r="11.85"/>
	<circle id="XMLID_136_" class="st20" cx="1275.01" cy="349.02" r="11.85"/>
	<circle id="XMLID_135_" class="st20" cx="1290.1" cy="349.02" r="11.85"/>
	<circle id="XMLID_134_" class="st9" cx="1231.7" cy="358.66" r="7.06"/>
	<circle id="XMLID_133_" class="st9" cx="1266.8" cy="332.82" r="7.06"/>
</g>
<rect x="56.1" y="84.64" class="st2" width="413.23" height="357.87"/>
<line class="st2" x1="56.1" y1="442.51" x2="469.33" y2="442.51"/>
<path class="st21" d="M56.1,442.35c0,0,76.23-336.86,413.23-336.86"/>
<text transform="matrix(1 0 0 1 793.8538 643.6926)" class="st7 st24 st25">Xyz</text>
<rect x="793.85" y="663.24" class="st2" width="413.23" height="357.87"/>
<path class="st19" d="M793.85,1020.95c0,0,76.23-123.74,413.23-123.74"/>
<path id="XMLID_131_" class="st20" d="M1020.04,944.44l-48.31-34.49c-6.11-4.37-7.55-12.94-3.18-19.06l0,0
	c4.37-6.11,12.94-7.55,19.06-3.18l48.31,34.49c6.11,4.37,7.55,12.94,3.18,19.06l0,0C1034.72,947.37,1026.15,948.8,1020.04,944.44z"
	/>
<g id="XMLID_129_">
	<path class="st22" d="M986.22,891.69c1.55-3.49,3.46-2.64,5.01-6.12c1.55-3.48-0.36-4.33,1.19-7.82c1.55-3.49,3.46-2.64,5.01-6.12
		c1.55-3.49-0.36-4.34,1.19-7.83c1.55-3.49,3.46-2.64,5.01-6.13"/>
</g>
<g id="XMLID_127_">
	<path class="st23" d="M1005.91,900.73c1.61-1.92,2.49-1.18,4.1-3.1c1.61-1.92,0.72-2.66,2.32-4.58c1.61-1.92,2.49-1.18,4.1-3.1
		c1.61-1.93,0.72-2.67,2.33-4.59c1.61-1.93,2.49-1.19,4.1-3.11"/>
	<path class="st22" d="M1005.91,900.73c1.61-1.92,2.49-1.18,4.1-3.1c1.61-1.92,0.72-2.66,2.32-4.58c1.61-1.92,2.49-1.18,4.1-3.1
		c1.61-1.93,0.72-2.67,2.33-4.59c1.61-1.93,2.49-1.19,4.1-3.11"/>
</g>
<g id="XMLID_125_">
	<path class="st22" d="M1023.15,917.3c3.46-2.12,4.54-0.35,8-2.48c3.46-2.12,2.37-3.89,5.83-6.01c3.46-2.12,4.55-0.35,8.01-2.48
		c3.46-2.13,2.38-3.89,5.84-6.02s4.55-0.36,8.01-2.48"/>
</g>
<g id="XMLID_123_">
	<path class="st23" d="M972.28,887.13c-0.87-2.83,0.75-3.33-0.12-6.15c-0.87-2.83-2.49-2.33-3.36-5.15
		c-0.87-2.83,0.75-3.33-0.12-6.16c-0.87-2.83-2.49-2.33-3.36-5.16c-0.87-2.83,0.75-3.33-0.12-6.16"/>
	<path class="st22" d="M972.28,887.13c-0.87-2.83,0.75-3.33-0.12-6.15c-0.87-2.83-2.49-2.33-3.36-5.15
		c-0.87-2.83,0.75-3.33-0.12-6.16c-0.87-2.83-2.49-2.33-3.36-5.16c-0.87-2.83,0.75-3.33-0.12-6.16"/>
</g>
<g id="XMLID_121_">
	<path class="st22" d="M970.28,897.67c-3.37-1.16-2.71-3.07-6.08-4.23c-3.37-1.16-4.02,0.75-7.39-0.41
		c-3.37-1.16-2.71-3.07-6.08-4.23c-3.37-1.16-4.03,0.75-7.4-0.41c-3.37-1.16-2.71-3.07-6.08-4.24"/>
</g>
<g id="XMLID_119_">
	<path class="st23" d="M968.11,906.24c-1.37,0.5-1.65-0.27-3.02,0.23c-1.37,0.5-1.09,1.27-2.45,1.77c-1.37,0.5-1.65-0.27-3.02,0.23
		c-1.37,0.5-1.09,1.27-2.46,1.77c-1.37,0.5-1.65-0.27-3.02,0.23"/>
	<path class="st22" d="M968.11,906.24c-1.37,0.5-1.65-0.27-3.02,0.23c-1.37,0.5-1.09,1.27-2.45,1.77c-1.37,0.5-1.65-0.27-3.02,0.23
		c-1.37,0.5-1.09,1.27-2.46,1.77c-1.37,0.5-1.65-0.27-3.02,0.23"/>
</g>
<g id="XMLID_117_">
	<path class="st23" d="M984.46,906.75c-2.21,2.13-3.13,1.17-5.34,3.3c-2.21,2.13-1.29,3.08-3.5,5.21c-2.21,2.13-3.13,1.17-5.35,3.3
		c-2.21,2.13-1.29,3.09-3.51,5.22c-2.21,2.13-3.13,1.17-5.35,3.3"/>
	<path class="st22" d="M984.46,906.75c-2.21,2.13-3.13,1.17-5.34,3.3c-2.21,2.13-1.29,3.08-3.5,5.21c-2.21,2.13-3.13,1.17-5.35,3.3
		c-2.21,2.13-1.29,3.09-3.51,5.22c-2.21,2.13-3.13,1.17-5.35,3.3"/>
</g>
<g id="XMLID_115_">
	<path class="st23" d="M991.56,922.7c-1.23,1.72-2.07,1.12-3.3,2.85c-1.23,1.72-0.39,2.32-1.62,4.05c-1.23,1.72-2.07,1.12-3.3,2.85
		c-1.23,1.73-0.39,2.33-1.62,4.05c-1.23,1.73-2.08,1.13-3.31,2.85"/>
	<path class="st22" d="M991.56,922.7c-1.23,1.72-2.07,1.12-3.3,2.85c-1.23,1.72-0.39,2.32-1.62,4.05c-1.23,1.72-2.07,1.12-3.3,2.85
		c-1.23,1.73-0.39,2.33-1.62,4.05c-1.23,1.73-2.08,1.13-3.31,2.85"/>
</g>
<g id="XMLID_113_">
	<path class="st23" d="M1006.1,917.57c-0.77,1.73-1.72,1.31-2.5,3.05c-0.77,1.73,0.18,2.16-0.59,3.89c-0.77,1.74-1.72,1.31-2.5,3.05
		c-0.77,1.74,0.18,2.16-0.6,3.9c-0.77,1.74-1.73,1.31-2.5,3.05"/>
	<path class="st22" d="M1006.1,917.57c-0.77,1.73-1.72,1.31-2.5,3.05c-0.77,1.73,0.18,2.16-0.59,3.89c-0.77,1.74-1.72,1.31-2.5,3.05
		c-0.77,1.74,0.18,2.16-0.6,3.9c-0.77,1.74-1.73,1.31-2.5,3.05"/>
</g>
<g id="XMLID_111_">
	<path class="st23" d="M1010.49,937.47c-0.59,1.59-1.49,1.26-2.09,2.85c-0.59,1.59,0.3,1.93-0.29,3.52c-0.6,1.6-1.49,1.26-2.09,2.86
		c-0.6,1.6,0.3,1.93-0.29,3.53c-0.6,1.6-1.49,1.26-2.09,2.86"/>
	<path class="st22" d="M1010.49,937.47c-0.59,1.59-1.49,1.26-2.09,2.85c-0.59,1.59,0.3,1.93-0.29,3.52c-0.6,1.6-1.49,1.26-2.09,2.86
		c-0.6,1.6,0.3,1.93-0.29,3.53c-0.6,1.6-1.49,1.26-2.09,2.86"/>
</g>
<g id="XMLID_109_">
	<path class="st22" d="M1021.97,932.88c-0.26,2.7-1.88,2.55-2.14,5.25c-0.26,2.7,1.35,2.86,1.09,5.56
		c-0.26,2.71-1.88,2.55-2.14,5.25c-0.26,2.71,1.35,2.86,1.09,5.57s-1.88,2.55-2.14,5.26"/>
</g>
<g id="XMLID_107_">
	<path class="st23" d="M1037.39,932.29c2.63-1.14,3.26,0.31,5.89-0.84c2.63-1.14,2-2.59,4.63-3.73c2.63-1.14,3.26,0.3,5.89-0.84
		c2.63-1.14,2-2.59,4.64-3.74c2.63-1.14,3.26,0.3,5.9-0.84"/>
	<path class="st22" d="M1037.39,932.29c2.63-1.14,3.26,0.31,5.89-0.84c2.63-1.14,2-2.59,4.63-3.73c2.63-1.14,3.26,0.3,5.89-0.84
		c2.63-1.14,2-2.59,4.64-3.74c2.63-1.14,3.26,0.3,5.9-0.84"/>
</g>
<g id="XMLID_105_">
	<path class="st23" d="M1040.07,938.14c1.99,0.53,1.69,1.69,3.68,2.22c1.99,0.53,2.3-0.63,4.3-0.1c1.99,0.53,1.69,1.69,3.68,2.22
		c2,0.53,2.31-0.63,4.3-0.1c2,0.53,1.69,1.69,3.69,2.22"/>
	<path class="st22" d="M1040.07,938.14c1.99,0.53,1.69,1.69,3.68,2.22c1.99,0.53,2.3-0.63,4.3-0.1c1.99,0.53,1.69,1.69,3.68,2.22
		c2,0.53,2.31-0.63,4.3-0.1c2,0.53,1.69,1.69,3.69,2.22"/>
</g>
<g id="XMLID_103_">
	<path class="st22" d="M1032.95,940.39c1.11,2.65-0.35,3.26,0.76,5.91c1.11,2.65,2.58,2.03,3.69,4.68c1.11,2.65-0.35,3.26,0.76,5.91
		c1.11,2.65,2.58,2.03,3.69,4.68c1.11,2.65-0.35,3.26,0.76,5.91"/>
</g>
<g>
	<circle id="XMLID_102_" class="st20" cx="221.7" cy="208.28" r="14.61"/>
	<circle id="XMLID_100_" class="st20" cx="213.98" cy="188.32" r="14.61"/>
	<circle id="XMLID_99_" class="st20" cx="202.17" cy="214.04" r="14.61"/>
	<circle id="XMLID_98_" class="st20" cx="193.58" cy="192.94" r="14.61"/>
</g>
</svg>
